<mxfile host="app.diagrams.net" modified="2024-05-02T23:45:30.519Z" agent="Mozilla/5.0 (Windows NT 10.0; Win64; x64) AppleWebKit/537.36 (KHTML, like Gecko) Chrome/124.0.0.0 Safari/537.36" etag="OFQKOPCPyLcEroW39ESO" version="24.3.0" type="github">
  <diagram id="R2lEEEUBdFMjLlhIrx00" name="Page-1">
    <mxGraphModel dx="926" dy="493" grid="1" gridSize="10" guides="1" tooltips="1" connect="1" arrows="1" fold="1" page="1" pageScale="1" pageWidth="850" pageHeight="1100" math="0" shadow="0" extFonts="Permanent Marker^https://fonts.googleapis.com/css?family=Permanent+Marker">
      <root>
        <mxCell id="0" />
        <mxCell id="1" parent="0" />
        <mxCell id="Ge79WZLAiVdc78lT4wKn-1" value="Hospital" style="whiteSpace=wrap;html=1;align=center;" vertex="1" parent="1">
          <mxGeometry x="290" y="180" width="100" height="40" as="geometry" />
        </mxCell>
        <mxCell id="Ge79WZLAiVdc78lT4wKn-2" value="Laboratorio" style="whiteSpace=wrap;html=1;align=center;" vertex="1" parent="1">
          <mxGeometry x="500" y="70" width="100" height="40" as="geometry" />
        </mxCell>
        <mxCell id="Ge79WZLAiVdc78lT4wKn-3" value="Sala" style="whiteSpace=wrap;html=1;align=center;" vertex="1" parent="1">
          <mxGeometry x="230" y="310" width="100" height="40" as="geometry" />
        </mxCell>
        <mxCell id="Ge79WZLAiVdc78lT4wKn-94" style="edgeStyle=none;rounded=0;orthogonalLoop=1;jettySize=auto;html=1;exitX=0;exitY=0.25;exitDx=0;exitDy=0;entryX=1;entryY=0.5;entryDx=0;entryDy=0;endArrow=none;endFill=0;" edge="1" parent="1" source="Ge79WZLAiVdc78lT4wKn-4" target="Ge79WZLAiVdc78lT4wKn-93">
          <mxGeometry relative="1" as="geometry" />
        </mxCell>
        <mxCell id="Ge79WZLAiVdc78lT4wKn-4" value="Paciente" style="whiteSpace=wrap;html=1;align=center;" vertex="1" parent="1">
          <mxGeometry x="580" y="290" width="100" height="40" as="geometry" />
        </mxCell>
        <mxCell id="Ge79WZLAiVdc78lT4wKn-5" value="Medico" style="whiteSpace=wrap;html=1;align=center;" vertex="1" parent="1">
          <mxGeometry x="200" y="470" width="100" height="40" as="geometry" />
        </mxCell>
        <mxCell id="Ge79WZLAiVdc78lT4wKn-80" style="edgeStyle=none;rounded=0;orthogonalLoop=1;jettySize=auto;html=1;exitX=0.25;exitY=0;exitDx=0;exitDy=0;entryX=1;entryY=1;entryDx=0;entryDy=0;endArrow=none;endFill=0;" edge="1" parent="1" source="Ge79WZLAiVdc78lT4wKn-6" target="Ge79WZLAiVdc78lT4wKn-77">
          <mxGeometry relative="1" as="geometry" />
        </mxCell>
        <mxCell id="Ge79WZLAiVdc78lT4wKn-6" value="Diagnostico" style="whiteSpace=wrap;html=1;align=center;" vertex="1" parent="1">
          <mxGeometry x="500" y="520" width="100" height="40" as="geometry" />
        </mxCell>
        <mxCell id="Ge79WZLAiVdc78lT4wKn-34" style="edgeStyle=none;rounded=0;orthogonalLoop=1;jettySize=auto;html=1;exitX=1;exitY=1;exitDx=0;exitDy=0;entryX=0;entryY=0.5;entryDx=0;entryDy=0;endArrow=none;endFill=0;" edge="1" parent="1" source="Ge79WZLAiVdc78lT4wKn-7" target="Ge79WZLAiVdc78lT4wKn-1">
          <mxGeometry relative="1" as="geometry" />
        </mxCell>
        <mxCell id="Ge79WZLAiVdc78lT4wKn-7" value="Codigo" style="ellipse;whiteSpace=wrap;html=1;align=center;fontStyle=4;" vertex="1" parent="1">
          <mxGeometry x="70" y="120" width="100" height="40" as="geometry" />
        </mxCell>
        <mxCell id="Ge79WZLAiVdc78lT4wKn-37" style="edgeStyle=none;rounded=0;orthogonalLoop=1;jettySize=auto;html=1;exitX=0;exitY=1;exitDx=0;exitDy=0;entryX=0.5;entryY=0;entryDx=0;entryDy=0;endArrow=none;endFill=0;" edge="1" parent="1" source="Ge79WZLAiVdc78lT4wKn-9" target="Ge79WZLAiVdc78lT4wKn-1">
          <mxGeometry relative="1" as="geometry" />
        </mxCell>
        <mxCell id="Ge79WZLAiVdc78lT4wKn-9" value="Teléfono" style="ellipse;whiteSpace=wrap;html=1;align=center;" vertex="1" parent="1">
          <mxGeometry x="300" y="80" width="100" height="40" as="geometry" />
        </mxCell>
        <mxCell id="Ge79WZLAiVdc78lT4wKn-36" style="edgeStyle=none;rounded=0;orthogonalLoop=1;jettySize=auto;html=1;exitX=0.5;exitY=1;exitDx=0;exitDy=0;entryX=0.25;entryY=0;entryDx=0;entryDy=0;endArrow=none;endFill=0;" edge="1" parent="1" source="Ge79WZLAiVdc78lT4wKn-10" target="Ge79WZLAiVdc78lT4wKn-1">
          <mxGeometry relative="1" as="geometry" />
        </mxCell>
        <mxCell id="Ge79WZLAiVdc78lT4wKn-10" value="Dirección" style="ellipse;whiteSpace=wrap;html=1;align=center;" vertex="1" parent="1">
          <mxGeometry x="220" y="30" width="100" height="40" as="geometry" />
        </mxCell>
        <mxCell id="Ge79WZLAiVdc78lT4wKn-35" style="edgeStyle=none;rounded=0;orthogonalLoop=1;jettySize=auto;html=1;exitX=0.5;exitY=1;exitDx=0;exitDy=0;entryX=0;entryY=0;entryDx=0;entryDy=0;endArrow=none;endFill=0;" edge="1" parent="1" source="Ge79WZLAiVdc78lT4wKn-11" target="Ge79WZLAiVdc78lT4wKn-1">
          <mxGeometry relative="1" as="geometry" />
        </mxCell>
        <mxCell id="Ge79WZLAiVdc78lT4wKn-11" value="Nombre" style="ellipse;whiteSpace=wrap;html=1;align=center;" vertex="1" parent="1">
          <mxGeometry x="130" y="70" width="100" height="40" as="geometry" />
        </mxCell>
        <mxCell id="Ge79WZLAiVdc78lT4wKn-38" style="edgeStyle=none;rounded=0;orthogonalLoop=1;jettySize=auto;html=1;exitX=1;exitY=1;exitDx=0;exitDy=0;entryX=0.25;entryY=0;entryDx=0;entryDy=0;endArrow=none;endFill=0;" edge="1" parent="1" source="Ge79WZLAiVdc78lT4wKn-12" target="Ge79WZLAiVdc78lT4wKn-3">
          <mxGeometry relative="1" as="geometry" />
        </mxCell>
        <mxCell id="Ge79WZLAiVdc78lT4wKn-12" value="Codigo" style="ellipse;whiteSpace=wrap;html=1;align=center;" vertex="1" parent="1">
          <mxGeometry x="115" y="230" width="100" height="40" as="geometry" />
        </mxCell>
        <mxCell id="Ge79WZLAiVdc78lT4wKn-39" style="edgeStyle=none;rounded=0;orthogonalLoop=1;jettySize=auto;html=1;exitX=1;exitY=0.5;exitDx=0;exitDy=0;entryX=0;entryY=0.25;entryDx=0;entryDy=0;endArrow=none;endFill=0;" edge="1" parent="1" source="Ge79WZLAiVdc78lT4wKn-13" target="Ge79WZLAiVdc78lT4wKn-3">
          <mxGeometry relative="1" as="geometry" />
        </mxCell>
        <mxCell id="Ge79WZLAiVdc78lT4wKn-13" value="Cantidad de camas" style="ellipse;whiteSpace=wrap;html=1;align=center;" vertex="1" parent="1">
          <mxGeometry x="100" y="300" width="100" height="40" as="geometry" />
        </mxCell>
        <mxCell id="Ge79WZLAiVdc78lT4wKn-40" style="edgeStyle=none;rounded=0;orthogonalLoop=1;jettySize=auto;html=1;exitX=1;exitY=0;exitDx=0;exitDy=0;entryX=0;entryY=1;entryDx=0;entryDy=0;endArrow=none;endFill=0;" edge="1" parent="1" source="Ge79WZLAiVdc78lT4wKn-14" target="Ge79WZLAiVdc78lT4wKn-3">
          <mxGeometry relative="1" as="geometry" />
        </mxCell>
        <mxCell id="Ge79WZLAiVdc78lT4wKn-14" value="Nombre" style="ellipse;whiteSpace=wrap;html=1;align=center;" vertex="1" parent="1">
          <mxGeometry x="115" y="360" width="100" height="40" as="geometry" />
        </mxCell>
        <mxCell id="Ge79WZLAiVdc78lT4wKn-41" style="edgeStyle=none;rounded=0;orthogonalLoop=1;jettySize=auto;html=1;exitX=0.5;exitY=1;exitDx=0;exitDy=0;entryX=0.5;entryY=1;entryDx=0;entryDy=0;endArrow=none;endFill=0;" edge="1" parent="1" source="Ge79WZLAiVdc78lT4wKn-16" target="Ge79WZLAiVdc78lT4wKn-5">
          <mxGeometry relative="1" as="geometry" />
        </mxCell>
        <mxCell id="Ge79WZLAiVdc78lT4wKn-16" value="Cédula de Identidad" style="ellipse;whiteSpace=wrap;html=1;align=center;fontStyle=4;" vertex="1" parent="1">
          <mxGeometry x="215" y="560" width="100" height="40" as="geometry" />
        </mxCell>
        <mxCell id="Ge79WZLAiVdc78lT4wKn-43" style="edgeStyle=none;rounded=0;orthogonalLoop=1;jettySize=auto;html=1;exitX=1;exitY=0;exitDx=0;exitDy=0;entryX=0;entryY=1;entryDx=0;entryDy=0;endArrow=none;endFill=0;" edge="1" parent="1" source="Ge79WZLAiVdc78lT4wKn-17" target="Ge79WZLAiVdc78lT4wKn-5">
          <mxGeometry relative="1" as="geometry" />
        </mxCell>
        <mxCell id="Ge79WZLAiVdc78lT4wKn-17" value="Especialidad" style="ellipse;whiteSpace=wrap;html=1;align=center;" vertex="1" parent="1">
          <mxGeometry x="100" y="550" width="100" height="40" as="geometry" />
        </mxCell>
        <mxCell id="Ge79WZLAiVdc78lT4wKn-42" style="edgeStyle=none;rounded=0;orthogonalLoop=1;jettySize=auto;html=1;exitX=1;exitY=0.5;exitDx=0;exitDy=0;entryX=0;entryY=0.75;entryDx=0;entryDy=0;endArrow=none;endFill=0;" edge="1" parent="1" source="Ge79WZLAiVdc78lT4wKn-18" target="Ge79WZLAiVdc78lT4wKn-5">
          <mxGeometry relative="1" as="geometry" />
        </mxCell>
        <mxCell id="Ge79WZLAiVdc78lT4wKn-18" value="Nombre" style="ellipse;whiteSpace=wrap;html=1;align=center;" vertex="1" parent="1">
          <mxGeometry x="70" y="490" width="100" height="40" as="geometry" />
        </mxCell>
        <mxCell id="Ge79WZLAiVdc78lT4wKn-54" style="edgeStyle=none;rounded=0;orthogonalLoop=1;jettySize=auto;html=1;exitX=0;exitY=1;exitDx=0;exitDy=0;entryX=1;entryY=0;entryDx=0;entryDy=0;endArrow=none;endFill=0;" edge="1" parent="1" source="Ge79WZLAiVdc78lT4wKn-20" target="Ge79WZLAiVdc78lT4wKn-2">
          <mxGeometry relative="1" as="geometry" />
        </mxCell>
        <mxCell id="Ge79WZLAiVdc78lT4wKn-20" value="Código" style="ellipse;whiteSpace=wrap;html=1;align=center;fontStyle=4;" vertex="1" parent="1">
          <mxGeometry x="610" y="10" width="100" height="40" as="geometry" />
        </mxCell>
        <mxCell id="Ge79WZLAiVdc78lT4wKn-56" style="edgeStyle=none;rounded=0;orthogonalLoop=1;jettySize=auto;html=1;exitX=0;exitY=0.5;exitDx=0;exitDy=0;entryX=1;entryY=1;entryDx=0;entryDy=0;endArrow=none;endFill=0;" edge="1" parent="1" source="Ge79WZLAiVdc78lT4wKn-21" target="Ge79WZLAiVdc78lT4wKn-2">
          <mxGeometry relative="1" as="geometry" />
        </mxCell>
        <mxCell id="Ge79WZLAiVdc78lT4wKn-21" value="Nombre" style="ellipse;whiteSpace=wrap;html=1;align=center;" vertex="1" parent="1">
          <mxGeometry x="620" y="110" width="100" height="40" as="geometry" />
        </mxCell>
        <mxCell id="Ge79WZLAiVdc78lT4wKn-55" style="edgeStyle=none;rounded=0;orthogonalLoop=1;jettySize=auto;html=1;exitX=0;exitY=0.5;exitDx=0;exitDy=0;entryX=1;entryY=0.5;entryDx=0;entryDy=0;endArrow=none;endFill=0;" edge="1" parent="1" source="Ge79WZLAiVdc78lT4wKn-22" target="Ge79WZLAiVdc78lT4wKn-2">
          <mxGeometry relative="1" as="geometry" />
        </mxCell>
        <mxCell id="Ge79WZLAiVdc78lT4wKn-22" value="Dirección&lt;span style=&quot;color: rgba(0, 0, 0, 0); font-family: monospace; font-size: 0px; text-align: start; text-wrap: nowrap;&quot;&gt;%3CmxGraphModel%3E%3Croot%3E%3CmxCell%20id%3D%220%22%2F%3E%3CmxCell%20id%3D%221%22%20parent%3D%220%22%2F%3E%3CmxCell%20id%3D%222%22%20value%3D%22Attribute%22%20style%3D%22ellipse%3BwhiteSpace%3Dwrap%3Bhtml%3D1%3Balign%3Dcenter%3B%22%20vertex%3D%221%22%20parent%3D%221%22%3E%3CmxGeometry%20x%3D%2260%22%20y%3D%22100%22%20width%3D%22100%22%20height%3D%2240%22%20as%3D%22geometry%22%2F%3E%3C%2FmxCell%3E%3C%2Froot%3E%3C%2FmxGraphModel%3E&lt;/span&gt;" style="ellipse;whiteSpace=wrap;html=1;align=center;" vertex="1" parent="1">
          <mxGeometry x="630" y="60" width="100" height="40" as="geometry" />
        </mxCell>
        <mxCell id="Ge79WZLAiVdc78lT4wKn-53" style="edgeStyle=none;rounded=0;orthogonalLoop=1;jettySize=auto;html=1;exitX=0.5;exitY=1;exitDx=0;exitDy=0;entryX=0.25;entryY=0;entryDx=0;entryDy=0;endArrow=none;endFill=0;" edge="1" parent="1" source="Ge79WZLAiVdc78lT4wKn-23" target="Ge79WZLAiVdc78lT4wKn-2">
          <mxGeometry relative="1" as="geometry" />
        </mxCell>
        <mxCell id="Ge79WZLAiVdc78lT4wKn-23" value="Teléfono" style="ellipse;whiteSpace=wrap;html=1;align=center;" vertex="1" parent="1">
          <mxGeometry x="490" y="10" width="100" height="40" as="geometry" />
        </mxCell>
        <mxCell id="Ge79WZLAiVdc78lT4wKn-46" style="edgeStyle=none;rounded=0;orthogonalLoop=1;jettySize=auto;html=1;exitX=0.5;exitY=0;exitDx=0;exitDy=0;entryX=0.25;entryY=1;entryDx=0;entryDy=0;endArrow=none;endFill=0;" edge="1" parent="1" source="Ge79WZLAiVdc78lT4wKn-24" target="Ge79WZLAiVdc78lT4wKn-4">
          <mxGeometry relative="1" as="geometry" />
        </mxCell>
        <mxCell id="Ge79WZLAiVdc78lT4wKn-24" value="Sexo" style="ellipse;whiteSpace=wrap;html=1;align=center;" vertex="1" parent="1">
          <mxGeometry x="560" y="370" width="100" height="40" as="geometry" />
        </mxCell>
        <mxCell id="Ge79WZLAiVdc78lT4wKn-50" style="edgeStyle=none;rounded=0;orthogonalLoop=1;jettySize=auto;html=1;exitX=0;exitY=0.5;exitDx=0;exitDy=0;entryX=1;entryY=0;entryDx=0;entryDy=0;endArrow=none;endFill=0;" edge="1" parent="1" source="Ge79WZLAiVdc78lT4wKn-25" target="Ge79WZLAiVdc78lT4wKn-4">
          <mxGeometry relative="1" as="geometry" />
        </mxCell>
        <mxCell id="Ge79WZLAiVdc78lT4wKn-25" value="Cédula de identidad" style="ellipse;whiteSpace=wrap;html=1;align=center;" vertex="1" parent="1">
          <mxGeometry x="740" y="230" width="100" height="40" as="geometry" />
        </mxCell>
        <mxCell id="Ge79WZLAiVdc78lT4wKn-47" style="edgeStyle=none;rounded=0;orthogonalLoop=1;jettySize=auto;html=1;exitX=0;exitY=0;exitDx=0;exitDy=0;entryX=0.75;entryY=1;entryDx=0;entryDy=0;endArrow=none;endFill=0;" edge="1" parent="1" source="Ge79WZLAiVdc78lT4wKn-26" target="Ge79WZLAiVdc78lT4wKn-4">
          <mxGeometry relative="1" as="geometry">
            <Array as="points">
              <mxPoint x="670" y="350" />
            </Array>
          </mxGeometry>
        </mxCell>
        <mxCell id="Ge79WZLAiVdc78lT4wKn-26" value="Fecha de Nacimiento" style="ellipse;whiteSpace=wrap;html=1;align=center;" vertex="1" parent="1">
          <mxGeometry x="670" y="370" width="100" height="40" as="geometry" />
        </mxCell>
        <mxCell id="Ge79WZLAiVdc78lT4wKn-48" style="edgeStyle=none;rounded=0;orthogonalLoop=1;jettySize=auto;html=1;exitX=0;exitY=0.5;exitDx=0;exitDy=0;entryX=1;entryY=1;entryDx=0;entryDy=0;endArrow=none;endFill=0;" edge="1" parent="1" source="Ge79WZLAiVdc78lT4wKn-27" target="Ge79WZLAiVdc78lT4wKn-4">
          <mxGeometry relative="1" as="geometry" />
        </mxCell>
        <mxCell id="Ge79WZLAiVdc78lT4wKn-27" value="Número de cama" style="ellipse;whiteSpace=wrap;html=1;align=center;" vertex="1" parent="1">
          <mxGeometry x="750" y="330" width="100" height="40" as="geometry" />
        </mxCell>
        <mxCell id="Ge79WZLAiVdc78lT4wKn-49" style="edgeStyle=none;rounded=0;orthogonalLoop=1;jettySize=auto;html=1;exitX=0;exitY=0.5;exitDx=0;exitDy=0;entryX=1;entryY=0.25;entryDx=0;entryDy=0;endArrow=none;endFill=0;" edge="1" parent="1" source="Ge79WZLAiVdc78lT4wKn-28" target="Ge79WZLAiVdc78lT4wKn-4">
          <mxGeometry relative="1" as="geometry" />
        </mxCell>
        <mxCell id="Ge79WZLAiVdc78lT4wKn-28" value="Número de registro" style="ellipse;whiteSpace=wrap;html=1;align=center;" vertex="1" parent="1">
          <mxGeometry x="750" y="280" width="100" height="40" as="geometry" />
        </mxCell>
        <mxCell id="Ge79WZLAiVdc78lT4wKn-51" style="edgeStyle=none;rounded=0;orthogonalLoop=1;jettySize=auto;html=1;exitX=0;exitY=1;exitDx=0;exitDy=0;entryX=0.75;entryY=0;entryDx=0;entryDy=0;endArrow=none;endFill=0;" edge="1" parent="1" source="Ge79WZLAiVdc78lT4wKn-29" target="Ge79WZLAiVdc78lT4wKn-4">
          <mxGeometry relative="1" as="geometry" />
        </mxCell>
        <mxCell id="Ge79WZLAiVdc78lT4wKn-29" value="Dirección" style="ellipse;whiteSpace=wrap;html=1;align=center;" vertex="1" parent="1">
          <mxGeometry x="650" y="190" width="100" height="40" as="geometry" />
        </mxCell>
        <mxCell id="Ge79WZLAiVdc78lT4wKn-52" style="edgeStyle=none;rounded=0;orthogonalLoop=1;jettySize=auto;html=1;exitX=0.5;exitY=1;exitDx=0;exitDy=0;entryX=0.25;entryY=0;entryDx=0;entryDy=0;endArrow=none;endFill=0;" edge="1" parent="1" source="Ge79WZLAiVdc78lT4wKn-30" target="Ge79WZLAiVdc78lT4wKn-4">
          <mxGeometry relative="1" as="geometry" />
        </mxCell>
        <mxCell id="Ge79WZLAiVdc78lT4wKn-30" value="Nombre" style="ellipse;whiteSpace=wrap;html=1;align=center;" vertex="1" parent="1">
          <mxGeometry x="540" y="180" width="100" height="40" as="geometry" />
        </mxCell>
        <mxCell id="Ge79WZLAiVdc78lT4wKn-44" style="edgeStyle=none;rounded=0;orthogonalLoop=1;jettySize=auto;html=1;exitX=0.5;exitY=0;exitDx=0;exitDy=0;entryX=0.25;entryY=1;entryDx=0;entryDy=0;endArrow=none;endFill=0;" edge="1" parent="1" source="Ge79WZLAiVdc78lT4wKn-31" target="Ge79WZLAiVdc78lT4wKn-6">
          <mxGeometry relative="1" as="geometry" />
        </mxCell>
        <mxCell id="Ge79WZLAiVdc78lT4wKn-31" value="Complicaciones" style="ellipse;whiteSpace=wrap;html=1;align=center;" vertex="1" parent="1">
          <mxGeometry x="440" y="580" width="100" height="40" as="geometry" />
        </mxCell>
        <mxCell id="Ge79WZLAiVdc78lT4wKn-45" style="edgeStyle=none;rounded=0;orthogonalLoop=1;jettySize=auto;html=1;exitX=0;exitY=0;exitDx=0;exitDy=0;entryX=0.75;entryY=1;entryDx=0;entryDy=0;endArrow=none;endFill=0;" edge="1" parent="1" source="Ge79WZLAiVdc78lT4wKn-32" target="Ge79WZLAiVdc78lT4wKn-6">
          <mxGeometry relative="1" as="geometry" />
        </mxCell>
        <mxCell id="Ge79WZLAiVdc78lT4wKn-32" value="Tipo" style="ellipse;whiteSpace=wrap;html=1;align=center;" vertex="1" parent="1">
          <mxGeometry x="600" y="580" width="100" height="40" as="geometry" />
        </mxCell>
        <mxCell id="Ge79WZLAiVdc78lT4wKn-58" style="edgeStyle=none;rounded=0;orthogonalLoop=1;jettySize=auto;html=1;entryX=0.25;entryY=1;entryDx=0;entryDy=0;endArrow=none;endFill=0;exitX=0.5;exitY=0;exitDx=0;exitDy=0;" edge="1" parent="1" source="Ge79WZLAiVdc78lT4wKn-57" target="Ge79WZLAiVdc78lT4wKn-1">
          <mxGeometry relative="1" as="geometry">
            <mxPoint x="345" y="270" as="sourcePoint" />
          </mxGeometry>
        </mxCell>
        <mxCell id="Ge79WZLAiVdc78lT4wKn-59" style="edgeStyle=none;rounded=0;orthogonalLoop=1;jettySize=auto;html=1;exitX=0;exitY=1;exitDx=0;exitDy=0;entryX=0.5;entryY=0;entryDx=0;entryDy=0;endArrow=none;endFill=0;" edge="1" parent="1" source="Ge79WZLAiVdc78lT4wKn-57" target="Ge79WZLAiVdc78lT4wKn-3">
          <mxGeometry relative="1" as="geometry" />
        </mxCell>
        <mxCell id="Ge79WZLAiVdc78lT4wKn-57" value="Posee" style="shape=rhombus;perimeter=rhombusPerimeter;whiteSpace=wrap;html=1;align=center;" vertex="1" parent="1">
          <mxGeometry x="260" y="255" width="85" height="30" as="geometry" />
        </mxCell>
        <mxCell id="Ge79WZLAiVdc78lT4wKn-60" value="1" style="text;html=1;align=center;verticalAlign=middle;resizable=0;points=[];autosize=1;strokeColor=none;fillColor=none;" vertex="1" parent="1">
          <mxGeometry x="100" y="185" width="30" height="30" as="geometry" />
        </mxCell>
        <mxCell id="Ge79WZLAiVdc78lT4wKn-61" value="1" style="text;html=1;align=center;verticalAlign=middle;resizable=0;points=[];autosize=1;strokeColor=none;fillColor=none;" vertex="1" parent="1">
          <mxGeometry x="370" y="285" width="30" height="30" as="geometry" />
        </mxCell>
        <mxCell id="Ge79WZLAiVdc78lT4wKn-63" style="edgeStyle=none;rounded=0;orthogonalLoop=1;jettySize=auto;html=1;exitX=1;exitY=0;exitDx=0;exitDy=0;endArrow=none;endFill=0;entryX=0;entryY=1;entryDx=0;entryDy=0;" edge="1" parent="1" source="Ge79WZLAiVdc78lT4wKn-62" target="Ge79WZLAiVdc78lT4wKn-1">
          <mxGeometry relative="1" as="geometry">
            <mxPoint x="290" y="220" as="targetPoint" />
          </mxGeometry>
        </mxCell>
        <mxCell id="Ge79WZLAiVdc78lT4wKn-64" style="edgeStyle=none;rounded=0;orthogonalLoop=1;jettySize=auto;html=1;exitX=0.5;exitY=1;exitDx=0;exitDy=0;entryX=0;entryY=0.25;entryDx=0;entryDy=0;endArrow=none;endFill=0;" edge="1" parent="1" source="Ge79WZLAiVdc78lT4wKn-62" target="Ge79WZLAiVdc78lT4wKn-5">
          <mxGeometry relative="1" as="geometry">
            <Array as="points">
              <mxPoint x="100" y="430" />
            </Array>
          </mxGeometry>
        </mxCell>
        <mxCell id="Ge79WZLAiVdc78lT4wKn-62" value="Trabaja" style="shape=rhombus;perimeter=rhombusPerimeter;whiteSpace=wrap;html=1;align=center;" vertex="1" parent="1">
          <mxGeometry x="30" y="208" width="100" height="40" as="geometry" />
        </mxCell>
        <mxCell id="Ge79WZLAiVdc78lT4wKn-66" value="1" style="text;html=1;align=center;verticalAlign=middle;resizable=0;points=[];autosize=1;strokeColor=none;fillColor=none;" vertex="1" parent="1">
          <mxGeometry x="300" y="218" width="30" height="30" as="geometry" />
        </mxCell>
        <mxCell id="Ge79WZLAiVdc78lT4wKn-67" value="1...n" style="text;html=1;align=center;verticalAlign=middle;resizable=0;points=[];autosize=1;strokeColor=none;fillColor=none;" vertex="1" parent="1">
          <mxGeometry x="30" y="248" width="50" height="30" as="geometry" />
        </mxCell>
        <mxCell id="Ge79WZLAiVdc78lT4wKn-69" style="edgeStyle=none;rounded=0;orthogonalLoop=1;jettySize=auto;html=1;exitX=0;exitY=1;exitDx=0;exitDy=0;entryX=1;entryY=0;entryDx=0;entryDy=0;endArrow=none;endFill=0;" edge="1" parent="1" source="Ge79WZLAiVdc78lT4wKn-68" target="Ge79WZLAiVdc78lT4wKn-1">
          <mxGeometry relative="1" as="geometry" />
        </mxCell>
        <mxCell id="Ge79WZLAiVdc78lT4wKn-70" style="edgeStyle=none;rounded=0;orthogonalLoop=1;jettySize=auto;html=1;exitX=1;exitY=0;exitDx=0;exitDy=0;entryX=0;entryY=1;entryDx=0;entryDy=0;endArrow=none;endFill=0;" edge="1" parent="1" source="Ge79WZLAiVdc78lT4wKn-68" target="Ge79WZLAiVdc78lT4wKn-2">
          <mxGeometry relative="1" as="geometry" />
        </mxCell>
        <mxCell id="Ge79WZLAiVdc78lT4wKn-68" value="Trabaja" style="shape=rhombus;perimeter=rhombusPerimeter;whiteSpace=wrap;html=1;align=center;" vertex="1" parent="1">
          <mxGeometry x="410" y="150" width="100" height="40" as="geometry" />
        </mxCell>
        <mxCell id="Ge79WZLAiVdc78lT4wKn-71" value="1...n" style="text;html=1;align=center;verticalAlign=middle;resizable=0;points=[];autosize=1;strokeColor=none;fillColor=none;" vertex="1" parent="1">
          <mxGeometry x="390" y="180" width="50" height="30" as="geometry" />
        </mxCell>
        <mxCell id="Ge79WZLAiVdc78lT4wKn-72" value="1...n" style="text;html=1;align=center;verticalAlign=middle;resizable=0;points=[];autosize=1;strokeColor=none;fillColor=none;" vertex="1" parent="1">
          <mxGeometry x="490" y="110" width="50" height="30" as="geometry" />
        </mxCell>
        <mxCell id="Ge79WZLAiVdc78lT4wKn-76" style="edgeStyle=none;rounded=0;orthogonalLoop=1;jettySize=auto;html=1;exitX=0.5;exitY=0;exitDx=0;exitDy=0;entryX=0.5;entryY=1;entryDx=0;entryDy=0;endArrow=none;endFill=0;" edge="1" parent="1" source="Ge79WZLAiVdc78lT4wKn-73" target="Ge79WZLAiVdc78lT4wKn-68">
          <mxGeometry relative="1" as="geometry" />
        </mxCell>
        <mxCell id="Ge79WZLAiVdc78lT4wKn-73" value="Descripción de servicio" style="ellipse;whiteSpace=wrap;html=1;align=center;" vertex="1" parent="1">
          <mxGeometry x="415" y="220" width="90" height="40" as="geometry" />
        </mxCell>
        <mxCell id="Ge79WZLAiVdc78lT4wKn-75" style="edgeStyle=none;rounded=0;orthogonalLoop=1;jettySize=auto;html=1;exitX=0.5;exitY=1;exitDx=0;exitDy=0;entryX=0.5;entryY=0;entryDx=0;entryDy=0;endArrow=none;endFill=0;" edge="1" parent="1" source="Ge79WZLAiVdc78lT4wKn-74" target="Ge79WZLAiVdc78lT4wKn-68">
          <mxGeometry relative="1" as="geometry" />
        </mxCell>
        <mxCell id="Ge79WZLAiVdc78lT4wKn-74" value="Fecha de realización" style="ellipse;whiteSpace=wrap;html=1;align=center;" vertex="1" parent="1">
          <mxGeometry x="405" y="95" width="80" height="45" as="geometry" />
        </mxCell>
        <mxCell id="Ge79WZLAiVdc78lT4wKn-78" style="edgeStyle=none;rounded=0;orthogonalLoop=1;jettySize=auto;html=1;exitX=1;exitY=0;exitDx=0;exitDy=0;entryX=0;entryY=0.75;entryDx=0;entryDy=0;endArrow=none;endFill=0;" edge="1" parent="1" source="Ge79WZLAiVdc78lT4wKn-77" target="Ge79WZLAiVdc78lT4wKn-4">
          <mxGeometry relative="1" as="geometry" />
        </mxCell>
        <mxCell id="Ge79WZLAiVdc78lT4wKn-79" style="edgeStyle=none;rounded=0;orthogonalLoop=1;jettySize=auto;html=1;exitX=0;exitY=1;exitDx=0;exitDy=0;entryX=1;entryY=0.5;entryDx=0;entryDy=0;endArrow=none;endFill=0;" edge="1" parent="1" source="Ge79WZLAiVdc78lT4wKn-77" target="Ge79WZLAiVdc78lT4wKn-5">
          <mxGeometry relative="1" as="geometry" />
        </mxCell>
        <mxCell id="Ge79WZLAiVdc78lT4wKn-77" value="Tiene" style="shape=rhombus;perimeter=rhombusPerimeter;whiteSpace=wrap;html=1;align=center;" vertex="1" parent="1">
          <mxGeometry x="390" y="390" width="70" height="40" as="geometry" />
        </mxCell>
        <mxCell id="Ge79WZLAiVdc78lT4wKn-84" value="1...N" style="text;html=1;align=center;verticalAlign=middle;resizable=0;points=[];autosize=1;strokeColor=none;fillColor=none;" vertex="1" parent="1">
          <mxGeometry x="525" y="335" width="50" height="30" as="geometry" />
        </mxCell>
        <mxCell id="Ge79WZLAiVdc78lT4wKn-85" value="1...n" style="text;html=1;align=center;verticalAlign=middle;resizable=0;points=[];autosize=1;strokeColor=none;fillColor=none;" vertex="1" parent="1">
          <mxGeometry x="290" y="485" width="50" height="30" as="geometry" />
        </mxCell>
        <mxCell id="Ge79WZLAiVdc78lT4wKn-86" value="1...n" style="text;html=1;align=center;verticalAlign=middle;resizable=0;points=[];autosize=1;strokeColor=none;fillColor=none;" vertex="1" parent="1">
          <mxGeometry x="510" y="490" width="50" height="30" as="geometry" />
        </mxCell>
        <mxCell id="Ge79WZLAiVdc78lT4wKn-92" style="edgeStyle=none;rounded=0;orthogonalLoop=1;jettySize=auto;html=1;exitX=0.5;exitY=1;exitDx=0;exitDy=0;entryX=1;entryY=0.5;entryDx=0;entryDy=0;endArrow=none;endFill=0;" edge="1" parent="1" source="Ge79WZLAiVdc78lT4wKn-87" target="Ge79WZLAiVdc78lT4wKn-77">
          <mxGeometry relative="1" as="geometry" />
        </mxCell>
        <mxCell id="Ge79WZLAiVdc78lT4wKn-87" value="Fecha de Atenciones" style="ellipse;whiteSpace=wrap;html=1;align=center;" vertex="1" parent="1">
          <mxGeometry x="505" y="430" width="70" height="40" as="geometry" />
        </mxCell>
        <mxCell id="Ge79WZLAiVdc78lT4wKn-91" style="edgeStyle=none;rounded=0;orthogonalLoop=1;jettySize=auto;html=1;exitX=0.5;exitY=0;exitDx=0;exitDy=0;entryX=0.5;entryY=1;entryDx=0;entryDy=0;endArrow=none;endFill=0;" edge="1" parent="1" source="Ge79WZLAiVdc78lT4wKn-90" target="Ge79WZLAiVdc78lT4wKn-77">
          <mxGeometry relative="1" as="geometry" />
        </mxCell>
        <mxCell id="Ge79WZLAiVdc78lT4wKn-90" value="Fecha de Diagnostico" style="ellipse;whiteSpace=wrap;html=1;align=center;" vertex="1" parent="1">
          <mxGeometry x="380" y="460" width="70" height="40" as="geometry" />
        </mxCell>
        <mxCell id="Ge79WZLAiVdc78lT4wKn-95" style="edgeStyle=none;rounded=0;orthogonalLoop=1;jettySize=auto;html=1;exitX=0;exitY=0.5;exitDx=0;exitDy=0;entryX=1;entryY=0.5;entryDx=0;entryDy=0;endArrow=none;endFill=0;" edge="1" parent="1" source="Ge79WZLAiVdc78lT4wKn-93" target="Ge79WZLAiVdc78lT4wKn-3">
          <mxGeometry relative="1" as="geometry" />
        </mxCell>
        <mxCell id="Ge79WZLAiVdc78lT4wKn-93" value="Internado" style="shape=rhombus;perimeter=rhombusPerimeter;whiteSpace=wrap;html=1;align=center;" vertex="1" parent="1">
          <mxGeometry x="400" y="285" width="90" height="40" as="geometry" />
        </mxCell>
        <mxCell id="Ge79WZLAiVdc78lT4wKn-96" value="1...N" style="text;html=1;align=center;verticalAlign=middle;resizable=0;points=[];autosize=1;strokeColor=none;fillColor=none;" vertex="1" parent="1">
          <mxGeometry x="480" y="280" width="50" height="30" as="geometry" />
        </mxCell>
        <mxCell id="Ge79WZLAiVdc78lT4wKn-97" value="1...N" style="text;html=1;align=center;verticalAlign=middle;resizable=0;points=[];autosize=1;strokeColor=none;fillColor=none;" vertex="1" parent="1">
          <mxGeometry x="280" y="285" width="50" height="30" as="geometry" />
        </mxCell>
      </root>
    </mxGraphModel>
  </diagram>
</mxfile>
